<svg xmlns="http://www.w3.org/2000/svg" width="144" height="38.875" viewBox="0 0 144 38.875">
  <metadata><?xpacket begin="﻿" id="W5M0MpCehiHzreSzNTczkc9d"?>
<x:xmpmeta xmlns:x="adobe:ns:meta/" x:xmptk="Adobe XMP Core 5.6-c142 79.160924, 2017/07/13-01:06:39        ">
   <rdf:RDF xmlns:rdf="http://www.w3.org/1999/02/22-rdf-syntax-ns#">
      <rdf:Description rdf:about=""/>
   </rdf:RDF>
</x:xmpmeta>
                                                                                                    
                                                                                                    
                                                                                                    
                                                                                                    
                                                                                                    
                                                                                                    
                                                                                                    
                                                                                                    
                                                                                                    
                                                                                                    
                                                                                                    
                                                                                                    
                                                                                                    
                                                                                                    
                                                                                                    
                                                                                                    
                                                                                                    
                                                                                                    
                                                                                                    
                                                                                                    
                           
<?xpacket end="w"?></metadata>
<defs>
    <style>
      .cls-1 {
        font-size: 36px;
        fill: #436372;
        font-family: Rubik;
        font-weight: 500;
      }

      .cls-2 {
        fill: #a3bbc8;
        fill-rule: evenodd;
      }
    </style>
  </defs>
  <text id="Glee._copy" data-name="Glee. copy" class="cls-1" x="59.999" y="35">Glee.</text>
  <path id="Path_324_copy" data-name="Path 324 copy" class="cls-2" d="M364.157,70.674a1.128,1.128,0,0,0,.622.387l48.041,9.8a1.137,1.137,0,0,0,.908-0.212,0.874,0.874,0,0,0,.31-0.8h0l-6.251-37.079a0.962,0.962,0,0,0-.449-0.645,1.337,1.337,0,0,0-.965-0.051l-35.194,14.05a0.9,0.9,0,0,0-.507.452c-0.171.325-6.494,13.076-6.582,13.257A0.806,0.806,0,0,0,364.157,70.674Zm45.586,6.436-20.05-11.145,10.339-2.159Zm-37.7-18.883,12.522,6.983-17.833,3.715Zm1.662-1.172L405.24,44.468l-5.558,17.587L387.31,64.639ZM411.363,76.05l-9.779-13.4,4.9-15.52Zm-3.886,1.9-38.051-7.761,17.523-3.65Z" transform="translate(-364 -42)"/>
</svg>
