<svg xmlns="http://www.w3.org/2000/svg" width="20.03" height="20.031" viewBox="0 0 20.03 20.031">
  <metadata><?xpacket begin="﻿" id="W5M0MpCehiHzreSzNTczkc9d"?>
<x:xmpmeta xmlns:x="adobe:ns:meta/" x:xmptk="Adobe XMP Core 5.6-c142 79.160924, 2017/07/13-01:06:39        ">
   <rdf:RDF xmlns:rdf="http://www.w3.org/1999/02/22-rdf-syntax-ns#">
      <rdf:Description rdf:about=""/>
   </rdf:RDF>
</x:xmpmeta>
                                                                                                    
                                                                                                    
                                                                                                    
                                                                                                    
                                                                                                    
                                                                                                    
                                                                                                    
                                                                                                    
                                                                                                    
                                                                                                    
                                                                                                    
                                                                                                    
                                                                                                    
                                                                                                    
                                                                                                    
                                                                                                    
                                                                                                    
                                                                                                    
                                                                                                    
                                                                                                    
                           
<?xpacket end="w"?></metadata>
<defs>
    <style>
      .cls-1 {
        fill: #fff;
        fill-rule: evenodd;
      }
    </style>
  </defs>
  <path class="cls-1" d="M1813.15,67.881a2.146,2.146,0,1,1,2.14-2.145A2.145,2.145,0,0,1,1813.15,67.881Zm0,7.869a2.146,2.146,0,1,1,2.14-2.147A2.146,2.146,0,0,1,1813.15,75.75Zm0,7.868a2.146,2.146,0,1,1,2.14-2.146A2.145,2.145,0,0,1,1813.15,83.618Zm7.86-15.737a2.146,2.146,0,1,1,2.15-2.145A2.143,2.143,0,0,1,1821.01,67.881Zm0,7.869a2.146,2.146,0,1,1,2.15-2.147A2.144,2.144,0,0,1,1821.01,75.75Zm0,7.868a2.146,2.146,0,1,1,2.15-2.146A2.143,2.143,0,0,1,1821.01,83.618Zm7.87-15.737a2.146,2.146,0,1,1,2.15-2.145A2.143,2.143,0,0,1,1828.88,67.881Zm0,7.869a2.146,2.146,0,1,1,2.15-2.147A2.144,2.144,0,0,1,1828.88,75.75Zm0,7.868a2.146,2.146,0,1,1,2.15-2.146A2.143,2.143,0,0,1,1828.88,83.618Z" transform="translate(-1811 -63.594)"/>
</svg>
